<svg xmlns="http://www.w3.org/2000/svg" version="1.1" xmlns:xlink="http://www.w3.org/1999/xlink" xmlns:svgjs="http://svgjs.dev/svgjs" width="1500" height="1500" viewBox="0 0 1500 1500"><rect width="1500" height="1500" fill="#ffffff"></rect><g transform="matrix(0.6666666666666666,0,0,0.6666666666666666,249.39393939393938,438.5856950067477)"><svg viewBox="0 0 396 247" data-background-color="#ffffff" preserveAspectRatio="xMidYMid meet" height="935" width="1500" xmlns="http://www.w3.org/2000/svg" xmlns:xlink="http://www.w3.org/1999/xlink"><g id="tight-bounds" transform="matrix(1,0,0,1,0.2400000000000091,-0.09999999999999432)"><svg viewBox="0 0 395.52 247.2" height="247.2" width="395.52"><g><svg></svg></g><g><svg viewBox="0 0 395.52 247.2" height="247.2" width="395.52"><g transform="matrix(1,0,0,1,39.55199999999999,41.23749862691251)"><svg viewBox="0 0 316.416 164.72500274617497" height="164.72500274617497" width="316.416"><g><svg viewBox="0 0 316.416 164.72500274617497" height="164.72500274617497" width="316.416"><g><svg viewBox="0 0 316.416 164.72500274617497" height="164.72500274617497" width="316.416"><g><svg viewBox="0 0 316.416 164.72500274617497" height="164.72500274617497" width="316.416"><g id="textblocktransform"><svg viewBox="0 0 316.416 164.72500274617497" height="164.72500274617497" width="316.416" id="textblock"><g><svg viewBox="0 0 316.416 164.72500274617497" height="164.72500274617497" width="316.416"><g transform="matrix(1,0,0,1,0,0)"><svg width="316.416" viewBox="1.27 -32.4 62.23 32.4" height="164.72500274617497" data-palette-color="#4b91f1"><path d="M9.72 0L9.72-23.66 20.95-23.66 20.95 0 9.72 0ZM1.27-25.34L1.27-32.4 29.39-32.4 29.39-25.34 1.27-25.34ZM43.82-32.4L43.82 0 39.52 0 33.03-6.47 33.03-25.93 39.52-32.4 43.82-32.4ZM52.71-25.93L45.53-25.93 45.53-32.4 57.03-32.4 63.5-25.93 63.5-19.41 52.71-19.41 52.71-25.93ZM57.03 0L45.53 0 45.53-6.47 52.71-6.47 52.71-11.21 63.5-11.21 63.5-6.47 57.03 0Z" opacity="1" transform="matrix(1,0,0,1,0,0)" fill="#000000" class="wordmark-text-0" data-fill-palette-color="primary" id="text-0"></path></svg></g></svg></g></svg></g></svg></g></svg></g></svg></g></svg></g><g><path d="M0 247.2v-247.2h395.52v247.2zM380.665 232.345v-217.49h-365.81v217.49z" fill="#000000" fill-rule="nonzero" stroke="none" stroke-width="1" stroke-linecap="butt" stroke-linejoin="miter" stroke-miterlimit="10" stroke-dasharray="" stroke-dashoffset="0" font-family="none" font-weight="none" font-size="none" text-anchor="none" style="mix-blend-mode: normal" data-fill-palette-color="tertiary"></path></g></svg></g><defs></defs></svg><rect width="395.52" height="247.2" fill="none" stroke="none" visibility="hidden"></rect></g></svg></g></svg>